HIERARCHY
ROOT Hips
{
  OFFSET -102.467 93.6631 130.069
  CHANNELS 6 Xposition Yposition Zposition Zrotation Xrotation Yrotation
  JOINT LeftUpLeg
  {
    OFFSET 8.64259 1.95398 -2.38835
    CHANNELS 3 Zrotation Xrotation Yrotation
    JOINT LeftLeg
    {
      OFFSET 43.7702 0 0
      CHANNELS 3 Zrotation Xrotation Yrotation
      JOINT LeftFoot
      {
        OFFSET 40.6238 0 0
        CHANNELS 3 Zrotation Xrotation Yrotation
        JOINT LeftToeBase
        {
          OFFSET 12.7242 0 0
          CHANNELS 3 Zrotation Xrotation Yrotation
          End Site
          {
            OFFSET 0 0 0
          }
        }
      }
    }
  }
  JOINT RightUpLeg
  {
    OFFSET -8.2249 1.95398 -2.59336
    CHANNELS 3 Zrotation Xrotation Yrotation
    JOINT RightLeg
    {
      OFFSET 43.5653 0 0
      CHANNELS 3 Zrotation Xrotation Yrotation
      JOINT RightFoot
      {
        OFFSET 40.6238 0 0
        CHANNELS 3 Zrotation Xrotation Yrotation
        JOINT RightToeBase
        {
          OFFSET 12.7242 0 0
          CHANNELS 3 Zrotation Xrotation Yrotation
          End Site
          {
            OFFSET 0 0 0
          }
        }
      }
    }
  }
  JOINT Spine
  {
    OFFSET 0.165834 0.87714 6.61349
    CHANNELS 3 Zrotation Xrotation Yrotation
    JOINT Spine1
    {
      OFFSET 7.38963 1.71661e-005 0
      CHANNELS 3 Zrotation Xrotation Yrotation
      JOINT Spine2
      {
        OFFSET 11.9445 1.14441e-005 0
        CHANNELS 3 Zrotation Xrotation Yrotation
        JOINT Spine3
        {
          OFFSET 14.7254 4.19617e-005 0
          CHANNELS 3 Zrotation Xrotation Yrotation
          JOINT Spine4
          {
            OFFSET 10.9679 0 0
            CHANNELS 3 Zrotation Xrotation Yrotation
            JOINT RightShoulder
            {
              OFFSET 2.46616 -1.6653 3.69651
              CHANNELS 3 Zrotation Xrotation Yrotation
              JOINT RightArm
              {
                OFFSET 13.0012 0 0
                CHANNELS 3 Zrotation Xrotation Yrotation
                JOINT RightForeArm
                {
                  OFFSET 28.7848 1.52588e-005 0
                  CHANNELS 3 Zrotation Xrotation Yrotation
                  JOINT RightHand
                  {
                    OFFSET 26.5688 1.52588e-005 0
                    CHANNELS 3 Zrotation Xrotation Yrotation
                    End Site
                    {
                      OFFSET 0 0 0
                    }
                  }
                }
              }
            }
            JOINT LeftShoulder
            {
              OFFSET 2.38034 -1.29275 -3.7523
              CHANNELS 3 Zrotation Xrotation Yrotation
              JOINT LeftArm
              {
                OFFSET 16.3182 6.10351e-005 0
                CHANNELS 3 Zrotation Xrotation Yrotation
                JOINT LeftForeArm
                {
                  OFFSET 27.0901 0 0
                  CHANNELS 3 Zrotation Xrotation Yrotation
                  JOINT LeftHand
                  {
                    OFFSET 24.5451 1.52588e-005 0
                    CHANNELS 3 Zrotation Xrotation Yrotation
                    End Site
                    {
                      OFFSET 0 0 0
                    }
                  }
                }
              }
            }
            JOINT Neck
            {
              OFFSET 5.0226 -0.0266342 0
              CHANNELS 3 Zrotation Xrotation Yrotation
              JOINT Head
              {
                OFFSET 6.69363 2.86102e-005 0
                CHANNELS 3 Zrotation Xrotation Yrotation
                End Site
                {
                  OFFSET 0 0 0
                }
              }
            }
          }
        }
      }
    }
  }
}
MOTION
Frames:	10
Frame Time:	0.0416667
107.422 93.2658 -110.023 -72.7821 -48.2614 -75.3348 -177.131 4.45717 89.7191 -27.2946 22.8796 4.47484 67.9513 17.544 24.006 60.9341 0.180653 11.0883 167.622 50.6402 87.1732 -52.3277 -9.42604 4.37369 64.2745 4.82638 15.3052 59.2819 -4.70062 6.47433 -0.662631 9.60247 -90.214 7.66494 -1.41594 -0.348211 -4.00524 -1.4299 -0.285544 -26.5451 -1.24582 -0.757724 -6.53246 -1.24581 -0.757715 100.021 -50.1901 -85.5062 25.9641 -4.53709 -9.10548 -0.401015 -4.08355 -5.87647 -7.5873 -0.419888 1.11258 -90.1675 -52.4331 78.7323 1.34133 5.91912 -24.3044 17.6932 4.25063 -58.3567 12.1043 -0.54138 -7.8835 30.7651 0.767369 -3.1601 -17.7658 1.18596 7.15641 
115.219 95.255 -116.521 -73.2783 -47.348 -79.1508 -178.567 11.8001 85.04 -28.1485 21.4633 2.56363 65.5887 13.8006 23.1674 56.4185 -1.36281 6.08963 168.11 42.5564 85.2162 -67.8904 -12.8705 1.58862 62.244 4.18198 13.1731 61.3413 -4.94987 6.83884 -0.370214 9.6667 -89.7506 7.54547 -0.630704 0.520428 -4.12541 -0.6072 0.547676 -26.6619 -0.757984 0.306802 -6.64924 -0.757973 0.306808 99.5184 -50.0083 -86.2984 26.7584 -5.50558 -13.0779 0.0415507 -1.72103 -7.38025 -9.99632 -0.599115 2.06124 -90.6481 -54.2482 78.4145 -1.16195 5.80802 -21.4917 16.1538 8.54748 -48.3141 11.5534 -0.311828 -6.04364 25.1271 -0.512179 -2.65546 -12.0509 -0.106617 8.09512 
120.797 96.9368 -120.684 -74.3783 -43.2308 -75.776 -177.982 16.9257 88.4528 -29.5368 20.0865 3.22411 65.2864 10.885 21.1106 51.47 -1.12851 5.77521 172.112 24.6145 90.7244 -64.453 -5.98029 0.068677 62.1272 6.71183 20.9152 48.8592 -1.96991 8.37964 0.145085 9.20113 -90.0641 8.47178 0.261216 -0.143078 -3.19916 0.254655 -0.154454 -25.7345 0.292133 -0.0579573 -5.72186 0.292122 -0.0579627 100.62 -48.9341 -84.6115 25.0477 -13.6287 -16.7411 -1.34438 -5.25832 -16.0474 -5.83134 -0.175477 -1.83997 -89.0515 -55.3115 80.8909 -4.66575 11.8115 -9.01939 11.996 14.6916 -36.9941 5.87383 -0.182211 -5.64158 19.3271 -0.806034 -6.70193 -12.0557 0.510729 10.9693 
126.627 97.3434 -125.891 -75.329 -39.3352 -79.6649 -177.342 22.1111 86.3742 -29.1332 17.0248 0.753889 63.5894 8.97454 19.4523 46.2583 -1.14504 4.10757 175.446 11.5857 88.5 -43.7593 -10.1073 -0.744416 60.4596 7.87953 21.7001 44.5246 1.35707 16.8735 0.355243 8.89386 -89.6569 9.08201 0.861962 0.621045 -2.5888 0.888463 0.582498 -25.124 0.635462 0.851386 -5.11134 0.635476 0.851368 101.117 -49.7847 -83.8087 23.271 -16.776 -16.2395 -10.5866 -8.51903 -36.0333 -2.70438 -0.0524011 -4.33281 -88.1461 -54.1764 81.9846 -12.5052 13.8367 2.78164 15.5265 28.5659 -33.1726 1.87127 -0.0690726 -4.19085 22.9134 -0.403771 -7.11354 -15.3372 0.931352 10.8325 
132.846 97.5771 -130.697 -76.1013 -38.8637 -81.8899 -177.422 26.3987 85.0247 -27.7382 16.0474 -0.431889 59.6996 6.28789 18.2444 43.2728 -1.24875 2.40148 175.664 4.5492 87.8452 -24.2634 -6.61814 -0.893017 59.7686 9.54907 23.4204 38.9013 1.52544 15.4665 0.481916 8.89171 -89.6926 9.08771 1.09867 0.531207 -2.58286 1.12097 0.482326 -25.1198 0.888229 0.836853 -5.10714 0.888233 0.83685 100.926 -49.7234 -84.1091 21.7389 -18.8362 -17.0642 -10.5168 -2.72163 -49.2628 -15.1386 -0.439854 -1.89366 -87.7759 -55.0475 82.6591 -16.4265 10.1654 5.05256 12.4271 39.1447 -24.0136 -4.24877 -0.106564 -4.30052 26.5681 -0.0233212 -3.95931 -17.137 0.292102 10.1369 
138.661 97.9159 -135.555 -75.7739 -39.815 -82.0688 -176.235 30.3394 85.3963 -25.1657 17.419 -1.55904 57.752 2.90682 10.3995 46.9635 -0.485951 7.20977 175.087 7.98005 87.8503 -25.6063 -1.27322 -0.0902582 70.1303 7.31344 21.6078 31.2817 1.40259 10.9109 0.602753 8.68767 -89.9157 9.49845 1.23987 0.0739087 -2.1719 1.24194 0.0192648 -24.7114 1.16033 0.443174 -4.69873 1.16034 0.443179 101.217 -49.9403 -83.6489 21.6157 -18.6394 -16.6778 -11.7003 -1.13999 -54.562 -13.159 -0.293758 -2.8176 -86.7899 -55.6466 84.1489 -17.4135 9.76902 1.28178 3.81837 41.5333 -12.9594 -8.76947 -0.0873097 -4.29768 23.4574 -0.511843 -4.43741 -15.7709 -0.0300408 10.2752 
142.902 97.6031 -139.308 -78.7577 -43.3944 -83.9705 -175.804 32.3228 85.9147 -33.6217 19.0382 -1.30683 56.3247 1.26819 6.43696 57.9852 1.23747 14.3012 175.202 9.18729 88.9297 -28.91 0.403465 0.0819178 77.0416 4.95841 16.9285 25.7376 1.75115 7.81511 0.378603 8.61956 -90.0732 9.63548 0.721756 -0.201183 -2.03528 0.712222 -0.232753 -24.572 0.748846 0.0250509 -4.5594 0.748876 0.0250636 101.918 -50.3206 -82.5528 21.8225 -20.8563 -15.8278 -12.7821 -3.60134 -49.737 -11.3726 -0.212452 -3.12514 -87.5303 -54.8481 82.9769 -17.3437 12.7447 -0.200434 5.46928 41.5361 -16.7929 -9.9683 0.0052888 -5.81332 20.752 -0.706801 -5.00802 -16.2245 -0.0716911 9.27811 
145.634 98.3095 -141.449 -83.3083 -44.7629 -86.4996 -175.764 29.0299 86.9985 -48.2697 13.948 0.379335 59.7758 6.38465 11.3053 53.7633 0.464093 11.808 175.235 7.57053 88.987 -28.2998 0.730889 -0.0171207 75.8777 6.67471 18.7713 22.0381 2.26064 6.91739 0.272453 8.41483 -90.1514 10.0449 0.474159 -0.340965 -1.626 0.458695 -0.361517 -24.1617 0.55469 -0.182713 -4.14907 0.554714 -0.182693 101.283 -51.7108 -83.518 23.5707 -21.4183 -11.207 -12.779 -9.70831 -40.1029 -10.2179 -0.37571 -0.962881 -86.5286 -53.5902 84.228 -17.3505 13.755 -4.30235 6.56559 38.4988 -18.6717 -6.37062 -0.0868153 -4.50674 17.1173 -0.576153 -6.03285 -17.2845 0.00159564 10.1833 
147.976 98.8512 -142.533 -85.7196 -45.9468 -88.7282 -178.204 18.8431 86.2997 -45.3186 13.0066 2.06022 59.3578 6.77819 11.9621 57.1776 0.448223 11.9486 175.081 8.10636 88.2921 -29.5608 0.496855 -0.174258 74.4264 5.60895 16.7233 23.5913 2.11602 7.89533 0.199355 8.04842 -90.0702 10.7755 0.36448 -0.176323 -0.895444 0.356383 -0.192209 -23.4309 0.400631 -0.0586317 -3.41827 0.400621 -0.0586386 101.703 -52.3826 -82.8694 26.6722 -17.3475 -7.45237 -8.61697 -16.7462 -25.7319 -10.6069 -0.465606 -0.10503 -86.543 -53.5893 84.2062 -16.2757 12.4534 -9.24152 7.83474 32.0764 -20.6392 -2.20214 -0.095328 -5.33333 12.7652 -0.685359 -6.35136 -16.7897 -0.137733 9.48871 
149.973 99.2278 -143.099 -85.6412 -46.9863 -85.2487 -178.028 4.28505 91.1839 -19.9892 19.693 3.48742 58.1057 8.1117 17.6054 55.4174 -1.30383 6.09791 175.886 7.82883 91.2931 -26.5659 3.66631 0.154028 71.223 6.83913 18.7818 23.5658 2.13176 8.04534 -0.00350476 7.53359 -90.4446 11.8091 -0.215755 -0.8565 0.137872 -0.253242 -0.846189 -22.3953 0.051618 -0.881759 -2.38262 0.0516324 -0.88175 101.275 -52.5056 -83.5162 28.3864 -11.2967 -5.44814 -1.84205 -17.8004 -9.99168 -9.32247 -0.63473 2.95408 -85.86 -54.4667 85.315 -16.0575 12.5977 -11.1476 9.71876 23.3425 -26.8839 3.37314 -0.143027 -5.51985 9.48185 0.139401 -6.61427 -16.5984 0.527207 9.81459 
